<svg width="207" height="35" fill="none" xmlns="http://www.w3.org/2000/svg"><path fill-rule="evenodd" clip-rule="evenodd" d="M54.624 16.28c-2.22 0-3.73 1.718-3.73 4.027 0 2.31 1.51 4.026 3.73 4.026 2.22 0 3.73-1.717 3.73-4.026 0-2.31-1.51-4.026-3.73-4.026zM51.22 27.709h-4.056V5.505h4.056v9.059c.68-.948 2.25-1.984 4.293-1.984 3.937 0 6.957 3.523 6.957 7.727 0 4.204-3.02 7.727-6.957 7.727-2.043 0-3.612-1.036-4.293-1.983v1.657zm20.722-3.465c2.132 0 3.671-1.658 3.671-3.937 0-2.28-1.54-3.938-3.67-3.938-2.132 0-3.701 1.658-3.701 3.938 0 2.28 1.569 3.937 3.7 3.937zm0 3.79c-4.292 0-7.786-3.405-7.786-7.727 0-4.322 3.493-7.727 7.786-7.727 4.293 0 7.786 3.405 7.786 7.727 0 4.322-3.493 7.727-7.786 7.727zm17.227-3.79c2.131 0 3.67-1.658 3.67-3.937 0-2.28-1.539-3.938-3.67-3.938-2.132 0-3.701 1.658-3.701 3.938 0 2.28 1.57 3.937 3.7 3.937zm0 3.79c-4.293 0-7.786-3.405-7.786-7.727 0-4.322 3.493-7.727 7.786-7.727 4.292 0 7.786 3.405 7.786 7.727 0 4.322-3.494 7.727-7.786 7.727zM99.59 5.505h4.055v12.848l4.797-5.447h4.884l-5.861 6.661 7.223 8.141h-5.003l-6.04-6.809v6.81H99.59V5.504z" fill="#1F2B84"/><path fill-rule="evenodd" clip-rule="evenodd" d="M122.918 27.886c-3.138 0-5.655-1.747-5.655-5.358v-6.07h-2.99v-3.552h2.99V8.791h4.057v4.115h4.174v3.553h-4.174v5.27c0 1.805.769 2.516 2.516 2.516.651 0 1.184-.089 1.658-.267v3.582c-.652.208-1.451.326-2.576.326zm11.782-3.642c2.132 0 3.671-1.658 3.671-3.937 0-2.28-1.539-3.938-3.671-3.938-2.132 0-3.701 1.658-3.701 3.938 0 2.28 1.569 3.937 3.701 3.937zm0 3.79c-4.293 0-7.786-3.405-7.786-7.727 0-4.322 3.493-7.727 7.786-7.727 4.293 0 7.786 3.405 7.786 7.727 0 4.322-3.493 7.727-7.786 7.727z" fill="#F4BA00"/><path fill-rule="evenodd" clip-rule="evenodd" d="M145.121 12.906h4.056v1.687c.769-1.184 2.309-2.013 4.233-2.013 3.583 0 5.714 2.605 5.714 6.454v8.674h-4.056v-7.993c0-2.132-.917-3.434-2.605-3.434-1.865 0-3.286 1.361-3.286 4.203v7.224h-4.056V12.906zm24.247 11.338c2.132 0 3.671-1.658 3.671-3.937 0-2.28-1.539-3.938-3.671-3.938-2.132 0-3.701 1.658-3.701 3.938 0 2.28 1.569 3.937 3.701 3.937zm0 3.79c-4.293 0-7.786-3.405-7.786-7.727 0-4.322 3.493-7.727 7.786-7.727 4.293 0 7.786 3.405 7.786 7.727 0 4.322-3.493 7.727-7.786 7.727zm17.261-.148c-3.138 0-5.654-1.747-5.654-5.358v-6.07h-2.991v-3.552h2.991V8.791h4.055v4.115h4.175v3.553h-4.175v5.27c0 1.805.77 2.516 2.517 2.516.651 0 1.184-.089 1.658-.267v3.582c-.651.208-1.451.326-2.576.326zm8.138-9.296h6.958c-.504-1.984-2.014-2.724-3.405-2.724-1.865 0-3.168 1.096-3.553 2.724zm3.642 9.444c-4.53 0-7.757-3.257-7.757-7.757 0-4.411 3.286-7.697 7.786-7.697 4.352 0 7.934 3.108 7.727 8.674h-11.546c.178 1.747 1.481 3.257 3.997 3.257 1.421 0 2.664-.622 3.138-1.629h4.234c-.889 2.99-3.819 5.151-7.579 5.151z" fill="#1F2B84"/><path fill-rule="evenodd" clip-rule="evenodd" d="M6.563 10.938a4.375 4.375 0 1 1 0-8.75 4.375 4.375 0 0 1 0 8.75zM0 13.124h13.125V0H0v13.125zM23.698 30.99h7.292v-7.292h-7.292v7.292zm3.646-11.302a7.656 7.656 0 1 0 0 15.312 7.656 7.656 0 0 0 0-15.313z" fill="#F4BA00"/><mask id="a" maskUnits="userSpaceOnUse" x="0" y="0" width="35" height="35"><path fill-rule="evenodd" clip-rule="evenodd" d="M0 0h35v35H0V0z" fill="#fff"/></mask><g mask="url(#a)"><path fill-rule="evenodd" clip-rule="evenodd" d="M35 3.078L31.922 0 0 31.922 3.078 35 35 3.078z" fill="#F4BA00"/></g></svg>