<svg width="495" height="497" fill="none" xmlns="http://www.w3.org/2000/svg"><path fill-rule="evenodd" clip-rule="evenodd" d="M92.5 157c-34.06 0-61.667-27.759-61.667-62 0-34.24 27.606-62 61.667-62 34.056 0 61.667 27.76 61.667 62 0 34.241-27.611 62-61.667 62zM0 188h185V2H0v186z" fill="#EFCCBD"/><mask id="a" maskUnits="userSpaceOnUse" x="0" y="1" width="495" height="495"><path fill-rule="evenodd" clip-rule="evenodd" d="M.004 1h494.953v494.999H.004V1z" fill="#fff"/></mask><g mask="url(#a)"><path fill-rule="evenodd" clip-rule="evenodd" d="M494.959 44.534L451.428 1 .004 452.468l43.527 43.531L494.96 44.534z" fill="#EFCCBD"/></g><mask id="b" maskUnits="userSpaceOnUse" x="0" y="1" width="495" height="495"><path fill-rule="evenodd" clip-rule="evenodd" d="M0 496h495V1H0v495z" fill="#fff"/></mask><g mask="url(#b)"><path fill-rule="evenodd" clip-rule="evenodd" d="M335.571 439.429h102.858V336.571H335.571v102.858zM387 280c-59.649 0-108 48.355-108 108s48.351 108 108 108 108-48.355 108-108-48.351-108-108-108z" fill="#EFCCBD"/></g></svg>